<svg width="65" height="54" viewBox="0 0 65 54" fill="none" xmlns="http://www.w3.org/2000/svg">
    <path d="M64.9404 51.7611C64.9804 52.1211 65.0004 52.4811 65.0004 52.8411C65.0004 53.2011 64.9804 53.5811 64.9404 53.9811H50.3604C50.3204 53.5811 50.3004 53.2011 50.3004 52.8411C50.3004 52.4811 50.3204 52.1211 50.3604 51.7611C51.8004 51.5611 52.8804 51.2611 53.6004 50.8611C54.3204 50.4211 54.6604 49.7011 54.6204 48.7011L49.2404 21.7011L47.3204 26.8611L36.5204 53.9811H34.7804L23.0804 21.3411L16.9804 51.0411C18.0204 51.4411 19.5004 51.6811 21.4204 51.7611C21.3804 52.3211 21.2804 53.0611 21.1204 53.9811H8.94043C9.02043 52.9811 9.12043 52.2411 9.24043 51.7611C12.0404 51.3611 13.4804 50.2611 13.5604 48.4611L19.4804 19.5411C18.4804 19.1411 17.4204 18.9211 16.3004 18.8811C16.2604 18.6411 16.2404 18.3211 16.2404 17.9211C16.2404 17.4811 16.3404 17.0611 16.5404 16.6611H26.9204L36.6404 44.0811L47.4404 16.6611H57.4604C57.5804 17.1411 57.6404 17.5811 57.6404 17.9811C57.6404 18.3411 57.6404 18.6211 57.6404 18.8211C56.5604 18.9411 55.7604 19.2411 55.2404 19.7211C54.7204 20.2011 54.4804 20.9811 54.5204 22.0611L60.5004 50.9811C61.8204 51.4211 63.3004 51.6811 64.9404 51.7611Z" fill="white"/>
    <path d="M23.3457 32.7285C24.0463 34.48 24.5222 36.0568 24.7725 37.458H25.0723L26.6533 33.2412L28.1387 37.7725L24.4717 47.1406H21.6943L19.5166 41.6963L21.8672 28.9238L23.3457 32.7285ZM17.1904 0C17.3406 0.550439 17.416 1.4512 17.416 2.70215C15.2641 2.95237 13.9621 3.30254 13.5117 3.75293C13.1114 4.15326 12.9121 4.60408 12.9121 5.10449C12.9121 5.55488 13.0369 6.13044 13.2871 6.83105L16.7168 15.6611H15.54C15.3401 16.0613 15.2403 17.4807 15.2402 17.9209C15.2402 18.3208 15.2608 19.6403 15.3008 19.8809C16.4207 19.9209 17.4806 20.1411 18.4805 20.541L15.9072 32.6738L4.2793 3.60352C3.02821 3.15312 1.67685 2.85228 0.225586 2.70215C0.0755355 1.85182 4.927e-05 1.2265 0 0.826172C0 0.425853 0.0251593 0.150136 0.0751953 0H17.1904ZM45.9404 0C45.8404 1.15083 45.6904 2.0516 45.4902 2.70215C42.888 3.15253 41.1613 4.47886 40.3105 6.68066L31.9795 27.96L30.4131 23.2139L37.6836 3.82812C36.1823 3.2276 34.4304 2.85228 32.4287 2.70215C32.4287 1.4512 32.5042 0.550439 32.6543 0H45.9404Z" fill="white"/>
</svg>
